# xmcd CD database file
#
# Track frame offsets:
#	150
#	19422
#	40955
#	60170
#
# Disc length: 1086 seconds
#
# Revision: 0
# Processed by: cddbd v1.5.1PL0 Copyright (c) Steve Scherf et al.
# Submitted via: CDex 1.51
#
DISCID=2a043c04
DTITLE=SEE SEE／山本由美子 - 魔装機神サイバスター：nothing,
DYEAR=1999
DGENRE=Vocal
TTITLE0=nothing,
TTITLE1=明日へ
TTITLE2=nothing,(OffVocalVersion)
TTITLE3=明日へ(OffVocalVersion)
EXTD=YEAR: 1999
EXTT0=
EXTT1=
EXTT2=
EXTT3=
PLAYORDER=
